<svg id="svg" version="1.1" xmlns="http://www.w3.org/2000/svg" xmlns:xlink="http://www.w3.org/1999/xlink" width="400" height="238.33333333333334" viewBox="0, 0, 400,238.33333333333334"><g id="svgg"><path id="path0" d="M92.583 12.137 C 90.381 13.137,89.553 15.298,91.211 15.716 C 91.816 15.868,92.333 15.961,92.360 15.923 C 92.387 15.884,92.549 15.499,92.721 15.068 C 93.322 13.559,94.696 13.149,95.720 14.173 C 96.950 15.403,96.266 17.163,94.558 17.163 C 93.089 17.163,93.211 18.944,94.694 19.143 C 96.536 19.390,97.215 21.375,95.932 22.760 C 94.801 23.980,92.448 23.231,92.204 21.573 C 92.146 21.184,91.921 21.083,90.968 21.023 L 89.803 20.949 89.963 21.946 C 90.646 26.219,97.801 26.590,98.926 22.411 C 99.399 20.656,98.776 19.208,97.114 18.201 C 96.688 17.942,96.697 17.914,97.277 17.686 C 98.690 17.131,99.188 14.719,98.180 13.304 C 97.129 11.827,94.480 11.275,92.583 12.137 M102.189 12.098 C 102.132 12.196,102.014 12.920,101.926 13.707 C 101.838 14.493,101.644 15.977,101.495 17.003 C 101.266 18.575,101.277 18.903,101.565 19.085 C 102.179 19.473,103.060 19.321,103.690 18.717 C 106.139 16.371,109.240 20.231,106.919 22.736 C 105.896 23.840,104.023 23.537,103.460 22.178 C 103.148 21.425,102.877 21.343,101.556 21.608 C 100.859 21.747,100.801 21.824,100.927 22.451 C 101.703 26.331,108.639 26.225,109.893 22.313 C 111.118 18.493,108.002 15.101,104.582 16.530 C 103.578 16.950,103.534 16.857,103.848 14.958 L 103.996 14.064 106.561 14.064 L 109.125 14.064 109.237 13.170 C 109.398 11.891,109.476 11.919,105.721 11.919 C 103.835 11.919,102.246 11.999,102.189 12.098 M19.070 60.685 L 19.070 93.479 35.816 93.374 C 51.802 93.274,55.203 93.136,57.330 92.502 C 57.723 92.384,58.903 92.045,59.952 91.749 C 67.897 89.501,72.013 83.585,72.040 74.374 C 72.064 66.353,67.318 59.570,60.787 58.289 C 57.973 57.737,57.480 57.368,59.178 57.082 C 72.339 54.868,72.507 34.596,59.405 29.712 C 54.867 28.020,53.154 27.899,33.790 27.894 L 19.070 27.890 19.070 60.685 M47.437 37.649 C 54.381 38.188,57.930 42.575,56.155 48.425 C 54.656 53.364,52.384 54.203,40.226 54.308 L 31.228 54.386 31.228 46.065 C 31.228 41.488,31.299 37.672,31.387 37.584 C 31.620 37.351,44.244 37.402,47.437 37.649 M103.099 46.004 C 98.159 46.592,94.519 48.669,92.230 52.206 L 91.418 53.460 91.299 50.270 L 91.180 47.080 85.638 47.016 L 80.095 46.952 80.095 70.203 L 80.095 93.453 85.638 93.389 L 91.180 93.325 91.313 80.095 C 91.441 67.409,91.467 66.811,91.946 65.554 C 93.895 60.445,97.701 57.823,104.231 57.092 L 105.602 56.938 105.602 51.354 L 105.602 45.769 105.066 45.801 C 104.771 45.819,103.886 45.911,103.099 46.004 M53.159 64.109 C 57.701 65.768,59.209 68.053,59.226 73.302 C 59.243 78.308,57.934 80.355,53.687 81.962 L 52.086 82.568 41.657 82.658 L 31.228 82.749 31.228 73.061 L 31.228 63.373 41.418 63.458 C 51.445 63.542,51.634 63.552,53.159 64.109 M208.964 129.976 C 208.901 130.402,208.729 131.609,208.582 132.658 C 208.435 133.707,208.260 134.929,208.192 135.375 C 207.991 136.711,209.588 137.118,210.629 135.995 C 212.448 134.032,215.088 136.297,214.317 139.161 C 213.755 141.249,210.732 141.445,210.327 139.420 C 210.184 138.705,210.164 138.695,209.084 138.853 C 207.643 139.064,207.534 139.207,207.977 140.310 C 209.157 143.251,214.655 143.402,216.332 140.540 C 218.545 136.765,215.312 132.267,211.525 133.850 C 210.378 134.329,210.412 134.356,210.600 133.104 C 210.874 131.275,210.756 131.347,213.468 131.347 C 216.137 131.347,216.210 131.308,216.210 129.897 L 216.210 129.201 212.645 129.201 L 209.080 129.201 208.964 129.976 M221.812 129.418 C 217.715 131.229,217.940 141.676,222.092 142.455 C 226.271 143.239,229.242 139.631,227.330 136.096 C 226.394 134.366,223.285 133.578,221.997 134.744 C 221.359 135.321,221.216 135.270,221.216 134.466 C 221.216 131.619,224.113 129.904,225.270 132.066 C 225.499 132.493,227.155 132.557,227.624 132.156 C 227.834 131.977,227.091 130.640,226.431 130.008 C 225.673 129.281,222.917 128.929,221.812 129.418 M225.089 136.849 C 225.736 137.640,225.647 139.333,224.921 140.059 C 223.192 141.787,220.736 139.659,221.669 137.240 C 222.132 136.038,224.230 135.798,225.089 136.849 M128.010 178.773 L 128.010 211.442 144.167 211.442 C 166.408 211.442,169.960 210.909,175.089 206.797 C 182.424 200.918,183.284 187.400,176.758 180.584 C 174.488 178.213,170.696 176.162,168.584 176.162 C 167.206 176.162,166.853 175.530,168.063 175.228 C 181.715 171.824,181.703 152.624,168.046 147.661 C 164.133 146.239,164.954 146.292,145.709 146.194 L 128.010 146.104 128.010 178.773 M158.889 156.027 C 166.980 158.106,168.066 168.354,160.531 171.529 L 158.880 172.225 149.523 172.301 L 140.167 172.378 140.167 164.020 L 140.167 155.662 148.818 155.662 C 155.809 155.662,157.741 155.732,158.889 156.027 M202.503 164.480 C 196.677 165.502,193.320 167.354,190.335 171.193 C 189.465 172.312,188.407 175.409,188.184 177.495 L 188.028 178.946 191.310 179.104 C 193.116 179.190,195.648 179.261,196.939 179.261 L 199.285 179.261 199.287 178.129 C 199.295 174.293,202.039 172.489,207.867 172.489 C 214.174 172.488,216.925 174.408,216.925 178.809 C 216.925 180.187,216.722 180.266,209.297 181.751 C 208.182 181.974,206.573 182.305,205.721 182.486 C 204.869 182.667,203.582 182.923,202.861 183.055 C 192.034 185.037,187.301 188.646,186.055 195.869 C 183.604 210.083,200.725 217.738,214.779 208.713 L 216.806 207.411 217.006 208.414 C 217.117 208.965,217.331 209.845,217.483 210.369 L 217.759 211.323 223.667 211.387 L 229.576 211.451 229.170 210.672 C 228.118 208.650,228.062 207.795,227.896 191.061 C 227.722 173.508,227.797 174.393,226.207 171.162 C 223.476 165.612,212.954 162.646,202.503 164.480 M161.740 182.106 C 170.185 184.835,171.196 196.397,163.290 199.822 L 161.502 200.596 150.834 200.669 L 140.167 200.742 140.167 191.233 C 140.167 186.003,140.247 181.643,140.346 181.543 C 140.836 181.046,160.022 181.550,161.740 182.106 M216.925 192.090 C 216.925 197.621,216.285 199.216,213.230 201.300 C 206.681 205.770,197.503 203.645,197.503 197.660 C 197.504 193.515,199.120 192.455,208.462 190.474 C 212.880 189.537,215.134 188.973,215.733 188.655 C 216.915 188.027,216.925 188.057,216.925 192.090 " stroke="none" fill="#f9fafa" fill-rule="evenodd"></path><path id="path1" d="M1.669 59.953 L 1.669 118.237 59.893 118.177 L 118.117 118.117 118.177 59.893 L 118.237 1.669 59.953 1.669 L 1.669 1.669 1.669 59.953 M96.166 11.704 C 98.992 12.489,100.070 15.727,98.081 17.457 L 97.501 17.961 98.329 18.790 C 100.992 21.452,98.599 25.592,94.398 25.592 C 91.660 25.592,89.984 24.283,89.705 21.926 L 89.561 20.713 90.936 20.786 C 92.273 20.856,92.319 20.881,92.580 21.686 C 92.896 22.661,93.757 23.187,94.740 23.007 C 97.148 22.566,96.714 19.309,94.247 19.309 L 93.445 19.309 93.445 18.117 L 93.445 16.925 94.320 16.925 C 95.813 16.925,96.582 15.597,95.735 14.482 C 94.898 13.379,92.729 14.352,92.729 15.829 C 92.729 16.284,92.636 16.290,91.079 15.930 C 89.677 15.607,89.575 15.261,90.424 13.727 C 91.490 11.804,93.709 11.022,96.166 11.704 M109.652 12.098 C 109.650 12.327,109.583 12.917,109.501 13.409 L 109.354 14.303 106.763 14.303 C 104.236 14.303,104.172 14.316,104.168 14.839 C 104.167 15.134,104.100 15.619,104.020 15.917 C 103.885 16.420,103.921 16.441,104.516 16.215 C 110.049 14.111,112.957 22.636,107.578 25.189 C 104.756 26.528,100.399 24.560,100.644 22.058 C 100.739 21.093,103.513 20.897,103.649 21.846 C 103.846 23.230,105.752 23.670,106.712 22.553 C 108.692 20.252,105.860 16.766,103.809 18.979 C 103.292 19.537,103.116 19.586,102.152 19.441 C 100.897 19.253,100.955 19.561,101.413 15.495 C 101.889 11.276,101.417 11.681,105.866 11.681 C 109.316 11.681,109.654 11.718,109.652 12.098 M229.160 27.747 C 227.826 28.022,226.655 28.328,226.558 28.427 C 226.460 28.525,226.187 28.605,225.951 28.605 C 225.122 28.605,221.264 29.957,219.462 30.879 C 217.762 31.749,217.051 33.414,217.776 34.830 C 218.088 35.439,218.455 35.611,222.169 36.881 C 223.237 37.246,224.107 37.961,224.293 38.626 C 224.848 40.615,225.432 77.112,224.964 80.572 C 224.867 81.293,224.725 82.473,224.648 83.194 C 224.408 85.458,223.371 86.664,221.075 87.345 C 220.318 87.570,219.594 88.474,219.531 89.273 C 219.243 92.948,221.150 93.571,232.135 93.390 C 239.473 93.270,240.751 93.001,241.711 91.374 C 242.801 89.527,242.092 88.193,239.396 87.017 C 236.454 85.735,236.245 84.920,236.238 74.698 C 236.233 67.496,236.232 67.496,239.690 71.636 C 240.345 72.421,240.962 73.099,241.060 73.143 C 241.159 73.186,241.240 73.369,241.240 73.548 C 241.240 73.727,241.380 73.960,241.551 74.064 C 241.722 74.169,242.554 75.129,243.398 76.197 C 247.539 81.432,248.285 82.377,248.448 82.598 C 248.544 82.729,249.188 83.543,249.878 84.407 C 250.568 85.271,251.347 86.276,251.609 86.642 C 251.871 87.008,252.354 87.642,252.682 88.051 C 253.009 88.461,253.385 88.935,253.516 89.105 C 254.313 90.135,256.520 92.236,257.330 92.736 C 258.856 93.679,268.325 93.647,270.361 92.692 C 274.035 90.970,273.240 87.042,269.084 86.377 C 268.585 86.298,268.176 86.139,268.176 86.024 C 268.176 85.910,268.031 85.816,267.854 85.816 C 266.540 85.816,262.337 82.057,258.760 77.683 C 258.105 76.881,257.354 75.978,257.092 75.676 C 256.830 75.373,256.407 74.843,256.154 74.498 C 255.900 74.152,255.439 73.581,255.128 73.228 C 254.818 72.875,254.081 71.943,253.490 71.156 C 252.339 69.622,252.168 69.402,251.251 68.266 C 250.924 67.860,250.495 67.283,250.298 66.985 C 250.101 66.686,249.699 66.146,249.404 65.785 C 249.109 65.423,248.868 65.018,248.868 64.884 C 248.868 64.750,248.758 64.604,248.624 64.559 C 247.154 64.069,248.893 61.639,254.051 56.973 C 255.809 55.383,257.685 54.339,259.390 54.004 C 259.830 53.917,260.405 53.757,260.667 53.648 C 260.930 53.539,261.614 53.322,262.187 53.166 C 264.970 52.411,265.518 49.163,263.102 47.737 C 260.486 46.194,248.306 46.182,245.816 47.720 C 244.321 48.644,243.701 50.384,244.412 51.663 C 244.744 52.261,246.191 53.397,246.620 53.397 C 247.117 53.397,247.497 54.082,247.342 54.698 C 247.137 55.515,241.711 60.945,239.472 62.574 C 239.112 62.837,238.591 63.242,238.316 63.475 C 237.726 63.973,236.842 64.233,236.486 64.013 C 236.181 63.825,236.161 46.447,236.453 36.990 C 236.778 26.502,236.554 26.218,229.160 27.747 M55.662 28.220 C 61.922 29.833,65.373 32.277,67.877 36.873 C 69.951 40.680,69.853 47.368,67.663 51.463 C 66.267 54.073,61.415 57.362,58.799 57.471 C 58.515 57.483,59.051 57.632,59.988 57.802 C 64.265 58.578,68.472 61.796,70.433 65.793 C 70.787 66.514,71.173 67.287,71.291 67.511 C 72.386 69.590,72.718 74.849,71.993 78.650 C 70.437 86.820,66.230 90.746,56.734 92.894 L 53.993 93.514 36.412 93.618 L 18.832 93.723 18.832 60.675 L 18.832 27.627 36.412 27.708 C 52.413 27.783,54.143 27.829,55.662 28.220 M282.956 28.825 C 280.987 29.286,278.415 31.081,278.050 32.249 C 277.960 32.540,277.779 32.845,277.650 32.929 C 276.221 33.847,277.942 39.321,279.850 39.926 C 280.116 40.011,280.334 40.170,280.334 40.281 C 280.334 40.392,280.762 40.555,281.286 40.643 C 281.810 40.732,282.299 40.902,282.373 41.022 C 282.608 41.403,285.642 41.253,287.184 40.784 C 289.428 40.101,291.776 38.124,291.776 36.917 C 291.776 36.687,291.883 36.434,292.014 36.353 C 292.418 36.103,292.283 33.720,291.802 32.618 C 290.532 29.704,286.530 27.988,282.956 28.825 M31.466 45.888 L 31.466 54.112 38.796 54.110 C 49.571 54.107,51.540 53.753,54.098 51.361 C 56.986 48.659,56.971 43.173,54.066 40.367 C 51.660 38.043,49.587 37.664,39.273 37.664 L 31.466 37.664 31.466 45.888 M394.756 44.581 C 390.542 47.261,387.286 47.906,384.267 46.659 C 384.070 46.577,383.105 46.393,382.122 46.250 C 381.138 46.106,379.744 45.895,379.023 45.780 C 377.337 45.511,373.760 45.507,372.229 45.772 C 370.013 46.155,368.416 46.525,368.176 46.711 C 368.045 46.812,367.616 46.971,367.223 47.064 C 366.372 47.264,364.396 48.197,364.283 48.451 C 364.239 48.549,364.067 48.629,363.901 48.629 C 362.445 48.629,356.647 55.073,356.608 56.734 C 356.604 56.931,356.442 57.300,356.250 57.555 C 356.057 57.809,355.900 58.243,355.900 58.520 C 355.900 58.796,355.784 59.138,355.643 59.279 C 355.275 59.648,355.082 64.727,355.382 66.150 C 355.924 68.714,356.186 69.607,356.396 69.607 C 356.516 69.607,356.615 69.773,356.615 69.976 C 356.615 70.541,358.205 72.933,359.397 74.161 L 360.463 75.259 359.194 76.101 C 352.688 80.422,352.202 87.698,358.226 90.614 L 359.263 91.116 358.607 91.456 C 355.508 93.064,353.066 96.377,353.014 99.046 C 352.962 101.671,356.291 107.509,357.840 107.509 C 357.941 107.509,358.431 107.786,358.929 108.125 C 360.798 109.397,364.201 110.732,366.255 110.998 C 366.918 111.084,367.538 111.273,367.631 111.418 C 367.872 111.789,380.013 111.784,380.476 111.412 C 380.660 111.264,381.444 111.067,382.218 110.973 C 383.547 110.812,385.956 110.157,387.008 109.670 C 387.271 109.549,388.182 109.150,389.035 108.784 C 389.887 108.418,390.620 108.035,390.663 107.933 C 390.707 107.831,390.854 107.747,390.991 107.747 C 391.433 107.747,394.366 105.556,395.590 104.311 C 400.563 99.254,401.230 90.981,396.963 87.276 C 395.351 85.877,395.374 85.893,394.737 85.697 C 394.420 85.600,394.046 85.429,393.906 85.318 C 392.218 83.977,386.697 83.743,377.712 84.633 C 374.439 84.957,366.675 84.847,366.438 84.473 C 366.345 84.327,365.936 84.135,365.528 84.047 C 364.166 83.752,362.532 81.234,363.242 80.525 C 363.399 80.367,363.528 80.100,363.528 79.932 C 363.528 79.223,364.829 77.710,365.316 77.853 C 369.330 79.032,378.008 79.567,379.110 78.704 C 379.258 78.588,379.906 78.424,380.548 78.340 C 381.190 78.256,381.834 78.099,381.978 77.991 C 382.123 77.883,382.712 77.660,383.287 77.495 C 388.068 76.126,392.331 71.829,394.069 66.627 C 395.145 63.404,394.679 56.219,393.296 54.720 C 392.966 54.363,393.052 53.874,393.445 53.874 C 393.641 53.874,393.802 53.779,393.802 53.664 C 393.802 53.549,394.120 53.323,394.508 53.162 C 395.107 52.914,396.341 51.719,397.562 50.206 C 397.728 50.000,397.929 49.507,398.009 49.111 C 398.088 48.715,398.246 48.391,398.361 48.391 C 398.732 48.391,398.582 46.307,398.153 45.503 C 397.212 43.739,396.418 43.524,394.756 44.581 M105.959 51.490 L 105.959 57.330 103.821 57.493 C 97.252 57.993,92.718 61.757,91.790 67.480 C 91.641 68.393,91.539 73.865,91.536 81.049 C 91.533 87.670,91.444 93.223,91.338 93.389 C 91.190 93.623,89.870 93.677,85.561 93.628 L 79.976 93.564 79.976 70.203 L 79.976 46.841 85.561 46.777 C 92.109 46.702,91.528 46.383,91.538 50.060 L 91.546 52.801 92.057 51.967 C 94.314 48.289,99.981 45.456,104.768 45.611 L 105.959 45.650 105.959 51.490 M144.696 45.788 C 141.459 46.375,140.644 46.569,140.644 46.755 C 140.644 46.868,140.426 46.961,140.160 46.961 C 139.661 46.961,136.803 48.084,136.591 48.363 C 136.526 48.449,136.204 48.656,135.876 48.822 C 135.192 49.169,134.625 49.510,133.611 50.182 C 132.566 50.874,129.435 54.087,128.606 55.316 C 128.213 55.900,127.838 56.430,127.772 56.496 C 127.429 56.837,125.632 60.859,125.270 62.098 C 125.040 62.884,124.768 63.697,124.666 63.904 C 123.968 65.322,123.827 73.465,124.458 75.924 C 124.592 76.448,124.816 77.360,124.956 77.950 C 125.095 78.540,125.284 79.076,125.375 79.142 C 125.467 79.207,125.682 79.771,125.853 80.393 C 126.024 81.016,126.258 81.526,126.372 81.526 C 126.486 81.526,126.579 81.679,126.579 81.866 C 126.579 82.053,126.726 82.353,126.905 82.533 C 127.085 82.712,127.302 83.083,127.389 83.356 C 127.476 83.629,127.731 84.082,127.957 84.363 C 130.444 87.457,131.166 88.244,132.256 89.051 C 132.952 89.566,133.649 90.096,133.805 90.227 C 134.233 90.588,135.918 91.629,136.591 91.949 C 138.073 92.652,140.191 93.445,140.589 93.445 C 140.829 93.445,141.129 93.549,141.256 93.676 C 142.019 94.439,152.186 94.473,153.127 93.716 C 153.275 93.596,153.853 93.423,154.410 93.331 C 154.967 93.239,155.423 93.083,155.423 92.985 C 155.423 92.886,155.851 92.677,156.375 92.520 C 157.180 92.278,159.756 90.901,160.548 90.287 C 160.679 90.186,161.595 89.487,162.584 88.734 C 167.290 85.151,168.810 82.228,166.982 80.274 C 165.798 79.008,163.730 79.403,161.352 81.349 C 159.733 82.674,158.383 83.588,157.569 83.910 C 157.110 84.091,156.681 84.314,156.615 84.405 C 155.557 85.866,145.764 85.863,144.458 84.400 C 144.392 84.327,143.909 84.055,143.385 83.795 C 139.638 81.943,136.584 76.645,136.595 72.018 C 136.601 69.495,135.118 69.735,151.183 69.662 C 165.789 69.595,166.239 69.565,167.182 68.602 C 168.596 67.157,168.131 60.044,166.363 56.081 C 166.115 55.525,165.912 54.962,165.912 54.830 C 165.912 54.697,165.831 54.589,165.733 54.589 C 165.635 54.588,165.267 54.079,164.916 53.456 C 163.516 50.973,159.723 47.938,157.070 47.178 C 156.492 47.013,155.912 46.800,155.781 46.705 C 154.607 45.856,147.546 45.272,144.696 45.788 M189.631 45.802 C 186.302 46.302,185.097 46.536,184.985 46.704 C 184.918 46.805,184.434 46.956,183.909 47.039 C 182.983 47.185,180.103 48.524,178.674 49.472 C 177.054 50.546,175.236 52.804,175.046 53.978 C 174.969 54.451,174.813 54.896,174.700 54.966 C 174.447 55.122,174.424 57.062,174.672 57.310 C 174.771 57.408,174.958 57.870,175.090 58.337 C 175.542 59.945,176.818 60.669,179.180 60.659 C 180.351 60.654,181.265 60.542,181.361 60.393 C 181.452 60.251,181.784 60.055,182.100 59.956 C 182.696 59.770,183.862 58.627,185.700 56.425 C 187.829 53.875,189.906 52.562,192.372 52.204 C 193.992 51.969,196.901 52.292,196.901 52.706 C 196.901 52.824,197.054 52.920,197.240 52.920 C 198.902 52.920,200.238 56.573,200.238 61.118 L 200.238 64.745 198.868 64.545 C 194.262 63.875,187.283 63.762,186.537 64.346 C 186.403 64.451,185.706 64.612,184.988 64.704 C 184.270 64.795,183.573 64.956,183.439 65.062 C 183.304 65.167,182.765 65.331,182.241 65.426 C 178.809 66.046,174.671 69.438,172.810 73.154 C 171.696 75.381,170.796 80.795,171.399 81.645 C 171.492 81.776,171.638 82.511,171.724 83.278 C 171.866 84.539,172.467 86.310,173.072 87.247 C 173.199 87.443,173.404 87.837,173.528 88.122 C 173.836 88.832,176.840 91.776,177.256 91.776 C 177.441 91.776,177.592 91.869,177.592 91.982 C 177.592 92.168,179.208 92.948,181.049 93.650 C 182.171 94.077,185.223 94.534,186.657 94.489 C 188.669 94.427,191.961 93.950,192.228 93.684 C 192.360 93.552,192.613 93.445,192.790 93.445 C 193.133 93.445,195.108 92.632,195.709 92.244 C 195.906 92.117,196.333 91.899,196.658 91.760 C 196.983 91.621,197.305 91.429,197.373 91.332 C 197.598 91.014,199.720 89.869,200.085 89.869 C 200.282 89.869,201.354 90.774,202.469 91.881 C 205.137 94.532,205.990 94.779,210.250 94.138 C 214.855 93.445,218.176 90.361,217.404 87.495 C 217.184 86.677,217.039 86.530,216.322 86.395 C 215.867 86.310,215.495 86.155,215.495 86.051 C 215.495 85.946,214.952 85.787,214.289 85.695 C 211.526 85.315,211.445 84.896,211.430 70.873 C 211.414 55.575,211.030 53.085,208.245 50.201 C 206.936 48.845,203.785 46.961,202.826 46.961 C 202.635 46.961,202.368 46.850,202.233 46.714 C 201.975 46.456,200.469 46.129,197.855 45.762 C 196.084 45.514,191.399 45.536,189.631 45.802 M287.128 45.810 C 286.603 45.933,285.504 46.153,284.684 46.299 C 283.865 46.444,283.194 46.652,283.194 46.762 C 283.194 46.871,282.965 46.961,282.686 46.961 C 282.093 46.961,280.323 47.441,279.976 47.696 C 279.845 47.793,279.336 47.947,278.844 48.039 C 278.352 48.130,277.950 48.301,277.950 48.417 C 277.950 48.534,277.778 48.629,277.567 48.629 C 277.086 48.629,275.093 49.622,274.390 50.211 C 272.535 51.766,272.951 53.890,275.271 54.715 C 275.892 54.935,276.615 55.210,276.877 55.324 C 277.139 55.439,277.647 55.638,278.005 55.768 C 278.440 55.926,278.834 56.381,279.197 57.144 L 279.738 58.284 279.738 71.395 L 279.738 84.505 279.142 85.392 C 278.712 86.031,278.105 86.476,276.969 86.986 C 273.479 88.550,273.537 91.661,277.078 92.896 C 279.025 93.576,292.748 93.539,294.607 92.850 C 297.493 91.781,298.165 88.762,295.764 87.657 C 295.340 87.462,294.450 87.058,293.784 86.759 C 292.298 86.091,291.763 85.242,291.613 83.313 C 291.552 82.527,291.393 81.657,291.259 81.381 C 291.018 80.882,291.109 72.306,291.374 70.560 C 291.443 70.101,291.536 64.596,291.579 58.326 L 291.657 46.925 290.878 46.228 C 290.034 45.471,289.036 45.360,287.128 45.810 M328.010 45.705 C 327.551 45.759,327.073 45.902,326.949 46.024 C 326.824 46.146,326.522 46.246,326.278 46.246 C 324.774 46.246,322.853 47.551,318.262 51.693 L 317.640 52.254 317.521 50.025 C 317.333 46.519,316.666 45.671,314.233 45.845 C 312.348 45.980,309.635 46.456,309.297 46.710 C 309.166 46.809,308.385 47.028,307.562 47.197 C 306.738 47.367,306.008 47.597,305.938 47.710 C 305.869 47.822,305.631 47.915,305.409 47.916 C 305.187 47.916,304.699 48.077,304.323 48.273 C 303.948 48.469,303.508 48.629,303.346 48.629 C 302.756 48.629,300.696 49.887,299.940 50.708 C 298.443 52.335,299.339 54.525,301.681 54.964 C 303.755 55.354,304.800 56.123,305.278 57.616 C 305.800 59.246,305.977 84.230,305.469 84.574 C 305.331 84.667,305.087 85.067,304.927 85.462 C 304.673 86.092,302.451 87.485,301.702 87.485 C 301.607 87.485,301.343 87.673,301.115 87.902 C 299.414 89.614,300.202 91.859,302.861 92.871 C 304.670 93.561,318.691 93.561,320.501 92.871 C 322.074 92.272,323.248 90.978,323.116 89.988 C 322.942 88.684,322.177 87.704,321.063 87.360 C 318.536 86.577,317.805 85.784,317.508 83.497 C 317.058 80.040,317.425 64.733,317.986 63.528 C 318.108 63.266,318.280 62.688,318.367 62.244 C 318.812 59.988,321.005 57.245,323.242 56.147 C 323.963 55.793,324.739 55.405,324.967 55.284 C 325.489 55.009,328.830 54.997,329.383 55.269 C 329.611 55.381,330.208 55.670,330.711 55.913 C 331.750 56.414,333.182 57.798,333.406 58.516 C 333.489 58.782,333.637 59.052,333.735 59.118 C 334.000 59.295,334.687 62.522,334.953 64.839 C 335.081 65.954,335.152 70.781,335.111 75.566 C 335.019 86.214,334.996 86.284,331.168 87.366 C 330.873 87.449,330.632 87.617,330.632 87.740 C 330.632 87.862,330.483 87.962,330.301 87.962 C 329.765 87.962,329.158 89.514,329.332 90.441 C 329.789 92.876,331.549 93.325,340.644 93.325 C 348.853 93.325,350.334 93.106,351.504 91.716 C 352.524 90.503,352.017 87.485,350.794 87.485 C 350.333 87.485,348.390 86.421,347.771 85.829 C 346.834 84.934,346.826 84.831,346.741 72.706 C 346.671 62.494,346.640 61.792,346.144 58.760 C 345.763 56.436,344.618 53.371,343.802 52.492 C 343.638 52.315,343.503 52.098,343.501 52.009 C 343.489 51.362,339.826 48.245,338.141 47.449 C 337.485 47.139,336.768 46.798,336.546 46.692 C 334.675 45.791,330.944 45.360,328.010 45.705 M376.278 52.203 C 379.578 52.743,381.878 54.832,382.977 58.284 C 383.415 59.658,383.621 64.323,383.288 65.316 C 383.222 65.513,383.024 66.103,382.847 66.627 C 380.473 73.667,370.459 74.541,367.832 67.938 C 367.650 67.479,367.411 66.985,367.302 66.841 C 367.193 66.696,367.034 65.915,366.950 65.105 C 366.865 64.295,366.704 63.576,366.592 63.507 C 366.326 63.342,366.327 61.091,366.593 60.927 C 366.706 60.857,366.870 60.187,366.958 59.438 C 367.046 58.689,367.204 57.962,367.309 57.823 C 367.415 57.683,367.649 57.193,367.830 56.734 C 368.188 55.825,368.288 55.683,369.410 54.477 C 370.811 52.971,372.317 52.253,374.613 51.996 C 374.744 51.981,375.493 52.075,376.278 52.203 M151.380 53.108 C 153.191 53.983,154.816 55.512,155.662 57.138 C 155.989 57.768,156.338 58.343,156.436 58.417 C 156.844 58.721,157.179 62.443,156.853 63.052 C 156.402 63.894,156.053 63.920,146.286 63.839 C 136.008 63.754,136.688 63.948,136.960 61.180 C 137.049 60.282,137.269 59.263,137.451 58.915 C 137.632 58.568,137.783 58.123,137.787 57.926 C 137.791 57.729,138.003 57.300,138.260 56.973 C 138.516 56.645,138.728 56.300,138.731 56.207 C 138.755 55.444,142.710 52.688,144.242 52.366 C 146.124 51.971,149.822 52.355,151.380 53.108 M31.466 73.063 L 31.466 82.479 40.346 82.472 C 52.760 82.461,55.053 82.042,57.299 79.374 C 59.989 76.176,59.703 69.469,56.750 66.526 C 54.229 64.014,52.158 63.647,40.498 63.647 L 31.466 63.647 31.466 73.063 M199.464 71.071 L 200.238 71.380 200.238 76.130 C 200.238 82.597,199.376 84.823,196.560 85.622 C 196.027 85.773,195.488 85.986,195.364 86.095 C 195.053 86.367,189.843 86.347,189.329 86.072 C 189.102 85.950,188.381 85.607,187.728 85.309 C 182.015 82.702,182.447 73.366,188.368 71.486 C 188.800 71.348,189.368 71.142,189.631 71.027 C 190.862 70.488,198.083 70.520,199.464 71.071 M385.903 93.217 C 386.737 93.353,387.576 93.620,387.767 93.812 C 387.958 94.003,388.206 94.160,388.317 94.160 C 389.359 94.160,389.941 97.830,389.160 99.477 C 388.328 101.230,385.240 103.636,383.285 104.054 C 382.842 104.149,382.372 104.311,382.241 104.414 C 380.981 105.404,371.361 105.379,369.011 104.379 C 365.023 102.682,363.674 101.123,363.686 98.225 C 363.696 95.544,365.205 93.228,366.720 93.566 C 368.048 93.862,374.805 93.972,375.684 93.712 C 376.413 93.496,380.593 93.117,383.433 93.008 C 383.957 92.988,385.069 93.082,385.903 93.217 M119.905 177.949 L 119.905 236.234 178.189 236.234 L 236.473 236.234 236.413 178.010 L 236.353 119.785 178.129 119.725 L 119.905 119.665 119.905 177.949 M225.030 128.983 C 226.717 129.370,228.468 131.580,227.698 132.349 C 227.197 132.850,225.293 132.881,225.107 132.390 C 224.361 130.423,222.027 131.353,221.592 133.790 C 221.420 134.756,221.556 134.862,222.274 134.319 C 224.477 132.653,228.129 135.150,228.129 138.322 C 228.129 143.838,220.499 144.692,218.946 139.351 C 217.193 133.321,220.367 127.912,225.030 128.983 M216.401 130.215 L 216.329 131.466 213.708 131.585 L 211.088 131.704 210.936 132.420 C 210.622 133.891,210.663 134.041,211.257 133.625 C 214.688 131.221,219.067 136.910,216.625 140.599 C 214.230 144.218,208.222 143.580,207.500 139.631 C 207.372 138.928,207.412 138.737,207.688 138.737 C 207.880 138.737,208.529 138.669,209.128 138.587 C 210.205 138.440,210.223 138.448,210.580 139.302 C 211.509 141.525,214.299 140.618,214.302 138.092 C 214.304 135.942,212.220 134.838,210.812 136.246 C 210.305 136.753,210.021 136.842,209.095 136.782 L 207.986 136.710 208.011 135.638 C 208.035 134.579,208.500 130.542,208.717 129.499 C 208.828 128.970,208.880 128.963,212.651 128.963 L 216.473 128.963 216.401 130.215 M222.278 136.938 C 221.035 138.181,221.826 140.405,223.510 140.405 C 224.591 140.405,225.268 139.638,225.268 138.411 C 225.268 136.557,223.520 135.696,222.278 136.938 M281.299 145.928 C 280.453 146.049,279.648 146.236,279.511 146.344 C 279.373 146.452,278.846 146.616,278.338 146.708 C 277.830 146.799,277.240 146.961,277.027 147.067 C 276.813 147.173,276.210 147.387,275.685 147.543 C 273.821 148.097,271.310 149.293,270.577 149.976 C 269.056 151.393,269.435 154.043,271.207 154.376 C 271.638 154.457,271.990 154.609,271.990 154.714 C 271.990 154.819,272.446 154.978,273.004 155.067 C 273.959 155.220,275.561 156.066,275.565 156.419 C 275.565 156.508,275.754 156.769,275.983 156.998 C 276.344 157.358,276.412 158.012,276.483 161.807 C 276.569 166.357,276.475 166.877,275.654 166.416 C 274.723 165.895,272.914 165.179,272.169 165.038 C 271.743 164.957,271.287 164.808,271.156 164.707 C 270.043 163.847,260.078 163.852,258.999 164.713 C 258.868 164.818,258.385 164.982,257.926 165.077 C 257.467 165.173,256.985 165.329,256.853 165.423 C 256.722 165.517,256.240 165.741,255.781 165.922 C 254.365 166.479,252.349 167.770,251.144 168.893 C 250.511 169.482,249.901 169.964,249.788 169.964 C 249.675 169.964,249.580 170.045,249.576 170.143 C 249.573 170.241,249.095 170.855,248.516 171.507 C 247.936 172.159,247.322 172.963,247.152 173.295 C 246.982 173.626,246.776 173.951,246.695 174.017 C 246.530 174.149,245.055 177.010,244.482 178.308 C 244.062 179.259,243.446 181.623,243.116 183.552 C 242.993 184.273,242.797 185.399,242.682 186.055 C 242.288 188.288,242.814 196.541,243.374 196.898 C 243.479 196.965,243.645 197.498,243.743 198.082 C 243.840 198.666,244.105 199.524,244.332 199.989 C 246.525 204.493,246.452 204.381,248.796 206.795 C 251.078 209.146,253.946 210.979,255.900 211.336 C 256.424 211.432,256.911 211.599,256.982 211.707 C 257.561 212.592,266.414 212.554,267.330 211.663 C 267.455 211.541,267.721 211.442,267.923 211.442 C 268.349 211.442,270.880 210.216,270.997 209.952 C 271.041 209.854,271.202 209.773,271.355 209.773 C 271.595 209.773,272.034 209.460,273.351 208.348 C 273.509 208.214,273.732 208.105,273.846 208.105 C 273.960 208.105,274.305 207.837,274.613 207.509 C 274.921 207.181,275.269 206.913,275.386 206.913 C 275.504 206.913,275.761 206.752,275.958 206.555 C 276.616 205.897,276.758 206.186,276.758 208.187 C 276.758 210.189,277.077 211.293,277.836 211.923 C 278.271 212.284,283.542 212.143,284.267 211.751 C 284.529 211.609,285.441 211.332,286.293 211.136 C 288.564 210.612,291.995 209.335,293.069 208.614 C 295.849 206.746,295.091 204.250,291.533 203.560 C 290.683 203.395,289.934 203.198,289.869 203.120 C 289.803 203.043,289.535 202.862,289.273 202.718 C 288.626 202.363,288.246 201.114,288.184 199.141 C 288.156 198.237,288.038 197.376,287.923 197.228 C 287.709 196.953,287.838 161.320,288.086 152.384 C 288.176 149.115,288.139 147.557,287.971 147.557 C 287.835 147.557,287.723 147.340,287.723 147.076 C 287.723 145.809,285.241 145.365,281.299 145.928 M163.862 146.266 C 175.735 148.588,181.831 159.091,176.991 168.886 C 175.476 171.954,170.934 175.376,168.260 175.466 L 167.700 175.485 168.296 175.673 C 168.623 175.776,169.670 176.102,170.622 176.397 C 177.424 178.503,181.303 184.407,181.275 192.610 C 181.235 203.972,175.283 210.052,162.813 211.466 C 160.363 211.744,129.323 212.061,128.355 211.818 L 127.771 211.671 127.771 178.780 L 127.771 145.888 144.851 145.888 C 159.467 145.888,162.210 145.942,163.862 146.266 M140.405 164.102 L 140.405 172.348 147.872 172.348 C 157.955 172.348,160.401 171.916,162.939 169.688 C 166.054 166.952,165.922 160.828,162.688 158.120 C 160.375 156.183,159.599 156.056,149.404 155.950 L 140.405 155.856 140.405 164.102 M213.053 164.008 C 221.268 164.735,225.962 168.038,227.618 174.257 C 228.063 175.933,228.099 177.007,228.199 191.657 C 228.311 208.201,228.401 209.451,229.578 210.869 C 230.369 211.822,229.841 211.919,223.862 211.919 C 217.042 211.919,217.575 212.164,216.748 208.651 L 216.567 207.886 215.495 208.613 C 208.082 213.641,198.454 214.300,191.996 210.221 C 189.530 208.663,187.932 206.685,186.438 203.337 C 184.867 199.818,185.854 192.181,188.180 189.855 C 188.368 189.667,188.724 189.256,188.972 188.940 C 191.329 185.945,195.451 184.212,204.410 182.451 C 209.042 181.541,209.772 181.392,211.800 180.945 C 212.980 180.684,214.535 180.331,215.256 180.160 L 216.567 179.848 216.642 178.675 C 216.762 176.775,215.129 173.783,213.968 173.777 C 213.824 173.776,213.385 173.592,212.992 173.367 C 211.792 172.682,204.080 172.759,202.622 173.471 C 200.591 174.463,199.852 175.558,199.586 177.973 L 199.404 179.619 194.756 179.528 C 187.195 179.380,187.390 179.489,188.186 175.851 C 190.128 166.979,198.981 162.762,213.053 164.008 M270.368 171.597 C 270.984 171.879,271.601 172.110,271.739 172.110 C 271.877 172.110,271.990 172.200,271.990 172.310 C 271.990 172.420,272.232 172.620,272.527 172.755 C 273.460 173.182,275.547 175.216,275.982 176.123 C 276.522 177.249,276.632 196.169,276.103 196.699 C 275.939 196.862,275.805 197.164,275.805 197.368 C 275.805 199.133,272.219 202.861,270.522 202.861 C 270.333 202.861,270.048 202.992,269.888 203.152 C 269.506 203.533,264.182 203.572,263.937 203.195 C 263.843 203.052,263.461 202.859,263.087 202.768 C 260.548 202.146,257.347 198.156,256.153 194.125 C 255.809 192.964,255.404 191.639,255.251 191.180 C 254.891 190.091,254.874 182.046,255.232 181.604 C 255.373 181.430,255.565 180.724,255.657 180.036 C 255.750 179.348,255.908 178.734,256.009 178.671 C 256.110 178.609,256.328 178.073,256.494 177.479 C 256.660 176.886,256.876 176.400,256.975 176.400 C 257.073 176.400,257.277 176.101,257.429 175.736 C 257.852 174.712,260.786 171.871,261.419 171.871 C 261.596 171.871,261.740 171.775,261.740 171.657 C 261.740 170.786,268.497 170.739,270.368 171.597 M140.405 191.180 L 140.405 200.715 149.106 200.715 C 160.286 200.715,162.902 200.326,165.498 198.279 C 169.308 195.273,169.127 187.653,165.163 184.186 C 162.758 182.081,159.859 181.660,147.735 181.650 L 140.405 181.645 140.405 191.180 M215.137 189.124 C 214.436 189.428,212.270 189.946,207.509 190.949 C 200.126 192.505,198.499 193.440,197.865 196.491 C 196.594 202.617,205.058 205.571,212.313 201.534 C 215.760 199.616,216.687 197.658,216.687 192.291 C 216.687 188.426,216.698 188.449,215.137 189.124 " stroke="none" fill="#0d5534" fill-rule="evenodd"></path><path id="path2" d="M0.000 60.072 L 0.000 120.143 58.880 120.143 L 117.759 120.143 117.759 179.142 L 117.759 238.141 178.189 238.141 L 238.618 238.141 238.558 178.010 L 238.498 117.878 179.321 117.818 L 120.143 117.758 120.143 58.879 L 120.143 0.000 60.072 0.000 L 0.000 0.000 0.000 60.072 M118.177 59.893 L 118.117 118.117 59.893 118.177 L 1.669 118.237 1.669 59.953 L 1.669 1.669 59.953 1.669 L 118.237 1.669 118.177 59.893 M236.752 31.138 C 236.729 31.548,236.654 32.245,236.585 32.688 C 236.470 33.424,236.481 33.443,236.715 32.905 C 236.856 32.582,236.931 31.884,236.882 31.355 C 236.810 30.573,236.786 30.532,236.752 31.138 M132.066 51.240 C 131.740 51.491,131.525 51.743,131.589 51.800 C 131.652 51.858,131.970 51.650,132.295 51.340 C 133.005 50.662,132.886 50.610,132.066 51.240 M224.886 59.833 C 224.886 61.734,224.923 62.512,224.968 61.561 C 225.014 60.611,225.014 59.055,224.968 58.105 C 224.923 57.154,224.886 57.932,224.886 59.833 M244.284 57.986 C 243.532 58.740,243.000 59.356,243.100 59.356 C 243.330 59.356,245.897 56.769,245.755 56.681 C 245.697 56.644,245.035 57.232,244.284 57.986 M138.056 57.245 C 137.888 57.514,137.802 57.787,137.866 57.851 C 137.930 57.915,138.107 57.734,138.260 57.449 C 138.620 56.776,138.453 56.609,138.056 57.245 M224.852 64.720 C 224.854 65.244,224.903 65.431,224.960 65.134 C 225.017 64.838,225.015 64.409,224.955 64.181 C 224.896 63.953,224.849 64.195,224.852 64.720 M224.808 69.031 C 224.817 70.593,224.916 72.086,225.026 72.348 C 225.141 72.620,225.171 71.441,225.096 69.607 C 224.932 65.579,224.786 65.287,224.808 69.031 M291.332 71.395 C 291.310 71.657,291.233 72.139,291.160 72.467 C 291.046 72.982,291.065 73.005,291.298 72.640 C 291.447 72.407,291.524 71.924,291.469 71.567 C 291.405 71.144,291.357 71.084,291.332 71.395 M391.180 71.990 C 390.765 72.515,390.478 72.944,390.544 72.944 C 390.610 72.944,391.003 72.515,391.418 71.990 C 391.834 71.466,392.120 71.037,392.054 71.037 C 391.989 71.037,391.595 71.466,391.180 71.990 M224.950 78.824 C 224.863 78.911,224.798 79.206,224.807 79.480 C 224.820 79.936,224.840 79.930,225.050 79.405 C 225.283 78.822,225.235 78.539,224.950 78.824 M291.061 80.902 C 291.061 81.098,291.168 81.325,291.299 81.406 C 291.430 81.487,291.538 81.393,291.538 81.196 C 291.538 81.000,291.430 80.772,291.299 80.691 C 291.168 80.610,291.061 80.705,291.061 80.902 M217.521 88.461 C 217.521 88.842,217.601 89.154,217.700 89.154 C 217.798 89.154,217.878 88.892,217.878 88.572 C 217.878 88.252,217.798 87.940,217.700 87.880 C 217.601 87.819,217.521 88.081,217.521 88.461 M272.687 89.690 C 272.616 90.202,272.652 90.494,272.772 90.374 C 272.887 90.259,272.943 89.857,272.896 89.481 C 272.817 88.851,272.801 88.867,272.687 89.690 M219.215 89.532 C 219.135 89.740,219.159 90.070,219.269 90.266 C 219.409 90.516,219.468 90.405,219.468 89.887 C 219.468 89.057,219.422 88.992,219.215 89.532 M202.622 92.372 C 202.930 92.700,203.222 92.968,203.271 92.968 C 203.469 92.968,202.486 91.790,202.283 91.783 C 202.161 91.779,202.314 92.044,202.622 92.372 M188.439 94.398 C 187.779 94.566,187.770 94.582,188.319 94.605 C 188.647 94.618,189.076 94.525,189.273 94.398 C 189.679 94.136,189.469 94.136,188.439 94.398 M207.986 94.398 L 206.555 94.556 207.912 94.596 C 208.658 94.618,209.335 94.529,209.416 94.398 C 209.497 94.267,209.530 94.178,209.490 94.200 C 209.449 94.222,208.772 94.311,207.986 94.398 M146.424 94.572 C 146.916 94.623,147.721 94.623,148.212 94.572 C 148.704 94.520,148.302 94.478,147.318 94.478 C 146.335 94.478,145.933 94.520,146.424 94.572 M397.529 101.847 L 397.100 102.622 397.591 102.026 C 398.027 101.498,398.220 101.073,398.025 101.073 C 397.988 101.073,397.764 101.421,397.529 101.847 M355.763 105.779 C 356.147 106.203,356.514 106.498,356.578 106.434 C 356.642 106.370,356.650 106.290,356.595 106.257 C 356.541 106.225,356.174 105.930,355.781 105.603 L 355.066 105.008 355.763 105.779 M236.413 178.010 L 236.473 236.234 178.189 236.234 L 119.905 236.234 119.905 177.949 L 119.905 119.665 178.129 119.725 L 236.353 119.785 236.413 178.010 M287.994 157.092 C 287.973 157.288,287.889 157.718,287.807 158.045 C 287.692 158.506,287.725 158.580,287.948 158.372 C 288.107 158.224,288.192 157.795,288.135 157.419 C 288.079 157.042,288.016 156.895,287.994 157.092 M242.590 185.618 C 242.503 185.705,242.441 186.054,242.452 186.393 C 242.472 186.997,242.476 186.996,242.682 186.305 C 242.899 185.580,242.867 185.341,242.590 185.618 M260.185 212.386 C 260.269 212.523,260.618 212.634,260.960 212.634 C 261.707 212.634,261.620 212.520,260.707 212.300 C 260.264 212.194,260.084 212.224,260.185 212.386 " stroke="none" fill="#04240c" fill-rule="evenodd"></path><path id="path3" d="M95.828 11.760 C 95.828 11.822,96.175 11.993,96.598 12.140 C 97.021 12.288,97.262 12.311,97.134 12.191 C 96.863 11.936,95.828 11.596,95.828 11.760 M102.182 11.859 C 102.121 11.958,103.714 12.038,105.721 12.038 C 107.728 12.038,109.321 11.958,109.260 11.859 C 109.199 11.761,107.607 11.681,105.721 11.681 C 103.835 11.681,102.243 11.761,102.182 11.859 M91.138 12.932 C 90.872 13.227,90.570 13.629,90.465 13.826 C 90.264 14.205,90.319 14.153,91.285 13.051 C 91.601 12.691,91.805 12.396,91.740 12.396 C 91.674 12.396,91.403 12.637,91.138 12.932 M97.973 13.051 C 98.285 13.477,98.577 13.826,98.623 13.826 C 98.804 13.826,98.213 12.932,97.822 12.614 C 97.565 12.405,97.622 12.572,97.973 13.051 M109.233 13.349 C 109.233 13.808,109.282 13.996,109.342 13.766 C 109.402 13.537,109.402 13.162,109.342 12.932 C 109.282 12.703,109.233 12.890,109.233 13.349 M93.411 14.083 L 92.849 14.579 93.438 14.203 C 93.762 13.995,94.248 13.826,94.517 13.826 C 94.787 13.826,95.272 13.995,95.597 14.203 L 96.186 14.579 95.623 14.083 C 95.314 13.811,94.816 13.588,94.517 13.588 C 94.219 13.588,93.721 13.811,93.411 14.083 M98.749 15.137 C 98.752 15.662,98.800 15.848,98.858 15.551 C 98.915 15.255,98.912 14.826,98.853 14.598 C 98.793 14.370,98.746 14.613,98.749 15.137 M101.610 15.137 C 101.612 15.662,101.661 15.848,101.718 15.551 C 101.775 15.255,101.773 14.826,101.713 14.598 C 101.654 14.370,101.607 14.613,101.610 15.137 M95.982 16.324 C 95.903 16.530,95.595 16.796,95.297 16.916 C 94.948 17.056,94.891 17.138,95.136 17.148 C 95.548 17.165,96.463 16.288,96.254 16.079 C 96.183 16.008,96.061 16.119,95.982 16.324 M104.969 16.154 C 104.818 16.250,105.371 16.329,106.198 16.329 C 107.025 16.329,107.578 16.250,107.427 16.154 C 107.275 16.058,106.722 15.979,106.198 15.979 C 105.673 15.979,105.120 16.058,104.969 16.154 M93.535 18.236 C 93.563 19.155,93.594 19.191,94.398 19.221 C 95.205 19.251,95.208 19.248,94.471 19.147 C 93.795 19.054,93.699 18.943,93.608 18.162 L 93.507 17.282 93.535 18.236 M107.138 19.023 C 107.234 19.193,107.407 19.837,107.521 20.453 L 107.729 21.573 107.646 20.420 C 107.600 19.786,107.428 19.142,107.263 18.990 C 107.031 18.777,107.003 18.784,107.138 19.023 M110.199 20.620 C 110.201 21.275,110.247 21.515,110.302 21.153 C 110.357 20.791,110.355 20.254,110.299 19.961 C 110.242 19.668,110.197 19.964,110.199 20.620 M96.370 21.216 C 96.370 21.806,96.417 22.047,96.473 21.752 C 96.530 21.457,96.530 20.974,96.473 20.679 C 96.417 20.384,96.370 20.626,96.370 21.216 M90.527 20.908 C 90.824 20.965,91.253 20.962,91.481 20.903 C 91.709 20.843,91.466 20.796,90.942 20.799 C 90.417 20.802,90.231 20.851,90.527 20.908 M100.678 21.822 C 100.601 22.024,100.604 22.257,100.686 22.338 C 100.767 22.420,100.834 22.316,100.834 22.106 C 100.834 21.897,101.076 21.679,101.371 21.622 L 101.907 21.519 101.363 21.487 C 101.064 21.469,100.756 21.620,100.678 21.822 M90.702 24.039 C 90.962 24.346,91.390 24.708,91.654 24.843 C 92.160 25.102,92.087 25.022,90.943 24.073 C 90.255 23.501,90.247 23.500,90.702 24.039 M93.746 25.439 C 94.108 25.494,94.645 25.493,94.938 25.436 C 95.231 25.379,94.934 25.335,94.279 25.336 C 93.623 25.338,93.383 25.384,93.746 25.439 M104.711 25.439 C 105.074 25.494,105.610 25.493,105.903 25.436 C 106.196 25.379,105.900 25.335,105.244 25.336 C 104.589 25.338,104.349 25.384,104.711 25.439 M50.721 28.065 C 51.282 28.116,52.140 28.115,52.628 28.064 C 53.117 28.012,52.658 27.971,51.609 27.972 C 50.560 27.973,50.161 28.015,50.721 28.065 M18.948 60.667 C 18.948 78.629,18.976 85.942,19.011 76.918 C 19.045 67.894,19.045 53.198,19.011 44.260 C 18.976 35.322,18.948 42.706,18.948 60.667 M56.277 28.691 C 56.332 28.738,56.698 28.849,57.092 28.937 C 57.614 29.054,57.710 29.031,57.449 28.855 C 57.127 28.637,56.038 28.485,56.277 28.691 M31.383 37.604 C 31.322 37.703,33.435 37.756,36.077 37.722 C 45.041 37.609,45.910 37.527,38.691 37.476 C 34.733 37.448,31.444 37.506,31.383 37.604 M54.112 40.167 C 54.557 40.626,54.974 41.001,55.040 41.001 C 55.105 41.001,54.795 40.626,54.350 40.167 C 53.906 39.708,53.488 39.333,53.423 39.333 C 53.357 39.333,53.667 39.708,54.112 40.167 M69.213 44.100 C 69.213 45.215,69.254 45.670,69.304 45.113 C 69.355 44.556,69.355 43.644,69.304 43.087 C 69.254 42.530,69.213 42.986,69.213 44.100 M56.339 45.888 C 56.340 46.937,56.382 47.336,56.432 46.776 C 56.483 46.215,56.482 45.357,56.431 44.869 C 56.380 44.380,56.338 44.839,56.339 45.888 M105.602 51.355 L 105.602 56.941 104.946 57.040 C 104.336 57.133,104.344 57.142,105.066 57.175 L 105.840 57.211 105.840 51.490 C 105.840 48.343,105.787 45.769,105.721 45.769 C 105.656 45.769,105.602 48.283,105.602 51.355 M81.883 46.888 C 86.585 47.058,91.245 47.065,91.144 46.901 C 91.083 46.803,88.545 46.744,85.504 46.771 C 82.464 46.797,80.834 46.850,81.883 46.888 M68.114 49.819 C 67.907 50.344,67.788 50.775,67.850 50.775 C 68.011 50.775,68.700 49.073,68.585 48.959 C 68.532 48.906,68.320 49.293,68.114 49.819 M54.216 51.549 L 53.516 52.324 54.291 51.624 C 55.013 50.971,55.175 50.775,54.991 50.775 C 54.950 50.775,54.601 51.123,54.216 51.549 M65.658 53.695 L 64.958 54.470 65.733 53.769 C 66.455 53.117,66.617 52.920,66.433 52.920 C 66.392 52.920,66.044 53.269,65.658 53.695 M49.344 53.874 C 48.865 54.027,48.842 54.066,49.225 54.072 C 49.487 54.075,49.917 53.986,50.179 53.874 C 50.786 53.613,50.160 53.613,49.344 53.874 M31.227 54.172 C 31.228 54.270,35.009 54.327,39.631 54.299 C 44.252 54.270,46.692 54.217,45.054 54.181 C 37.504 54.013,31.227 54.009,31.227 54.172 M102.685 57.380 C 102.981 57.437,103.410 57.434,103.638 57.375 C 103.866 57.315,103.623 57.268,103.099 57.271 C 102.574 57.274,102.388 57.323,102.685 57.380 M67.342 61.979 C 67.854 62.503,68.327 62.932,68.392 62.932 C 68.458 62.932,68.093 62.503,67.580 61.979 C 67.068 61.454,66.596 61.025,66.530 61.025 C 66.465 61.025,66.830 61.454,67.342 61.979 M72.046 72.467 C 72.046 72.926,72.095 73.114,72.155 72.884 C 72.215 72.655,72.215 72.279,72.155 72.050 C 72.095 71.821,72.046 72.008,72.046 72.467 M72.055 76.043 C 72.055 76.633,72.102 76.874,72.159 76.579 C 72.216 76.284,72.216 75.802,72.159 75.507 C 72.102 75.212,72.055 75.453,72.055 76.043 M51.847 82.241 C 51.188 82.409,51.178 82.425,51.728 82.447 C 52.056 82.461,52.485 82.368,52.682 82.241 C 53.087 81.979,52.878 81.979,51.847 82.241 M49.642 82.643 C 49.872 82.703,50.247 82.703,50.477 82.643 C 50.706 82.584,50.518 82.534,50.060 82.534 C 49.601 82.534,49.413 82.584,49.642 82.643 M57.211 92.502 C 56.950 92.679,57.046 92.701,57.569 92.584 C 58.445 92.388,58.635 92.251,58.025 92.256 C 57.774 92.258,57.408 92.369,57.211 92.502 M53.456 93.132 C 53.686 93.192,54.061 93.192,54.291 93.132 C 54.520 93.072,54.333 93.023,53.874 93.023 C 53.415 93.023,53.227 93.072,53.456 93.132 M50.715 93.379 C 51.141 93.432,51.838 93.432,52.265 93.379 C 52.691 93.326,52.342 93.282,51.490 93.282 C 50.638 93.282,50.289 93.326,50.715 93.379 M26.298 93.623 C 30.339 93.660,36.883 93.660,40.840 93.623 C 44.796 93.587,41.490 93.557,33.492 93.557 C 25.495 93.557,22.257 93.587,26.298 93.623 M82.896 93.623 C 84.371 93.664,86.785 93.664,88.260 93.623 C 89.735 93.581,88.528 93.546,85.578 93.546 C 82.628 93.546,81.421 93.581,82.896 93.623 M222.527 129.084 C 223.054 129.268,225.728 129.338,225.449 129.161 C 225.284 129.056,224.505 128.977,223.719 128.986 C 222.932 128.994,222.396 129.038,222.527 129.084 M226.597 130.177 C 226.980 130.649,227.343 130.994,227.401 130.945 C 227.460 130.895,227.146 130.510,226.704 130.088 L 225.899 129.321 226.597 130.177 M208.642 131.228 C 208.644 131.752,208.693 131.939,208.750 131.642 C 208.807 131.346,208.805 130.916,208.745 130.689 C 208.686 130.461,208.639 130.703,208.642 131.228 M215.971 131.069 C 215.971 131.260,215.174 131.362,213.409 131.397 L 210.846 131.447 213.329 131.525 C 215.624 131.597,216.582 131.402,216.134 130.954 C 216.045 130.864,215.971 130.916,215.971 131.069 M225.030 132.062 C 225.310 132.455,225.593 132.777,225.658 132.777 C 225.724 132.777,225.548 132.455,225.268 132.062 C 224.988 131.669,224.705 131.347,224.640 131.347 C 224.574 131.347,224.750 131.669,225.030 132.062 M210.489 133.611 C 210.489 133.939,210.581 134.207,210.694 134.207 C 210.807 134.207,210.848 133.939,210.785 133.611 C 210.723 133.284,210.630 133.015,210.580 133.015 C 210.530 133.015,210.489 133.284,210.489 133.611 M221.360 133.393 C 220.902 134.588,221.329 135.550,221.961 134.744 C 222.264 134.358,222.254 134.354,221.833 134.684 C 221.396 135.027,221.383 134.999,221.512 134.029 C 221.654 132.967,221.604 132.758,221.360 133.393 M222.673 134.185 C 222.470 134.314,222.790 134.351,223.508 134.281 C 225.122 134.124,225.347 134.009,224.076 133.991 C 223.486 133.983,222.855 134.070,222.673 134.185 M218.670 136.114 C 218.670 136.967,218.713 137.315,218.766 136.889 C 218.819 136.463,218.819 135.766,218.766 135.340 C 218.713 134.914,218.670 135.262,218.670 136.114 M216.996 138.021 C 216.996 138.743,217.041 139.038,217.096 138.677 C 217.150 138.316,217.150 137.726,217.096 137.366 C 217.041 137.005,216.996 137.300,216.996 138.021 M214.363 137.902 C 214.366 138.427,214.414 138.613,214.471 138.317 C 214.528 138.020,214.526 137.591,214.467 137.363 C 214.407 137.135,214.360 137.378,214.363 137.902 M221.514 138.379 C 221.517 138.903,221.566 139.090,221.623 138.793 C 221.680 138.497,221.678 138.068,221.618 137.840 C 221.558 137.612,221.512 137.855,221.514 138.379 M207.774 138.932 C 207.708 139.039,207.969 139.081,208.356 139.024 C 208.742 138.967,209.058 138.879,209.058 138.829 C 209.058 138.647,207.892 138.741,207.774 138.932 M210.333 142.607 C 210.484 142.703,211.305 142.782,212.157 142.782 C 213.010 142.782,213.831 142.703,213.982 142.607 C 214.133 142.510,213.312 142.431,212.157 142.431 C 211.002 142.431,210.181 142.510,210.333 142.607 M221.750 142.591 C 221.915 142.696,222.694 142.775,223.480 142.767 C 225.220 142.748,224.965 142.618,222.942 142.493 C 222.121 142.442,221.585 142.486,221.750 142.591 M135.936 146.067 C 140.361 146.103,147.601 146.103,152.026 146.067 C 156.451 146.030,152.831 146.001,143.981 146.001 C 135.131 146.001,131.511 146.030,135.936 146.067 M165.197 146.841 C 166.012 147.103,166.638 147.103,166.031 146.841 C 165.769 146.729,165.340 146.640,165.077 146.644 C 164.694 146.649,164.718 146.688,165.197 146.841 M173.897 151.371 C 174.410 151.895,174.882 152.324,174.948 152.324 C 175.013 152.324,174.648 151.895,174.136 151.371 C 173.624 150.846,173.151 150.417,173.086 150.417 C 173.020 150.417,173.385 150.846,173.897 151.371 M140.274 164.005 C 140.274 168.659,140.306 170.563,140.345 168.236 C 140.384 165.909,140.384 162.101,140.345 159.774 C 140.306 157.446,140.274 159.350,140.274 164.005 M156.675 155.826 C 156.904 155.886,157.279 155.886,157.509 155.826 C 157.738 155.766,157.551 155.717,157.092 155.717 C 156.633 155.717,156.445 155.766,156.675 155.826 M162.217 157.482 C 162.348 157.597,162.830 158.012,163.289 158.405 L 164.122 159.118 163.527 158.441 C 163.200 158.068,162.718 157.653,162.455 157.517 C 162.193 157.382,162.086 157.366,162.217 157.482 M177.633 157.807 C 177.645 158.426,178.020 159.444,178.029 158.880 C 178.032 158.617,177.943 158.188,177.831 157.926 C 177.705 157.634,177.629 157.588,177.633 157.807 M207.688 163.937 C 208.048 163.992,208.638 163.992,208.999 163.937 C 209.359 163.883,209.064 163.838,208.343 163.838 C 207.622 163.838,207.327 163.883,207.688 163.937 M213.111 164.255 C 214.549 164.511,215.677 164.489,214.422 164.229 C 213.897 164.121,213.147 164.039,212.753 164.048 C 212.217 164.060,212.306 164.112,213.111 164.255 M177.858 165.475 C 177.843 165.694,177.769 166.069,177.694 166.309 C 177.564 166.723,177.571 166.724,177.829 166.321 C 177.979 166.088,178.053 165.712,177.994 165.487 C 177.897 165.118,177.883 165.117,177.858 165.475 M224.195 168.534 C 224.708 169.058,225.180 169.487,225.246 169.487 C 225.311 169.487,224.946 169.058,224.434 168.534 C 223.922 168.010,223.449 167.580,223.384 167.580 C 223.318 167.580,223.683 168.010,224.195 168.534 M176.916 168.425 C 176.517 169.302,176.593 169.489,177.025 168.692 C 177.226 168.320,177.347 167.970,177.292 167.916 C 177.238 167.861,177.068 168.090,176.916 168.425 M191.765 169.309 L 190.822 170.322 191.836 169.380 C 192.778 168.503,192.958 168.296,192.778 168.296 C 192.739 168.296,192.283 168.751,191.765 169.309 M175.730 170.431 C 175.443 170.819,175.209 171.216,175.209 171.312 C 175.209 171.408,175.477 171.124,175.805 170.679 C 176.132 170.235,176.400 169.839,176.400 169.799 C 176.400 169.604,176.207 169.787,175.730 170.431 M161.561 170.816 C 160.670 171.299,160.724 171.501,161.621 171.037 C 162.014 170.834,162.336 170.616,162.336 170.554 C 162.336 170.401,162.311 170.409,161.561 170.816 M206.973 172.522 C 207.464 172.573,208.269 172.573,208.760 172.522 C 209.252 172.470,208.850 172.428,207.867 172.428 C 206.883 172.428,206.481 172.470,206.973 172.522 M203.695 172.836 C 203.363 172.986,203.507 173.008,204.172 172.907 C 204.696 172.827,205.170 172.722,205.224 172.674 C 205.429 172.493,204.152 172.629,203.695 172.836 M210.270 172.672 C 210.325 172.720,210.852 172.822,211.442 172.900 C 212.158 172.995,212.356 172.972,212.038 172.831 C 211.583 172.629,210.063 172.493,210.270 172.672 M215.374 174.733 C 216.504 176.053,216.519 176.068,216.261 175.566 C 216.126 175.304,215.710 174.822,215.338 174.494 L 214.660 173.899 215.374 174.733 M168.057 175.209 C 167.566 175.366,167.545 175.403,167.938 175.420 C 168.200 175.431,168.576 175.336,168.772 175.209 C 169.190 174.939,168.900 174.939,168.057 175.209 M167.447 175.787 C 167.702 175.993,168.184 176.151,168.520 176.138 C 169.081 176.115,169.071 176.099,168.394 175.937 C 167.989 175.841,167.506 175.683,167.321 175.587 C 167.136 175.490,167.193 175.580,167.447 175.787 M228.002 191.538 C 228.002 199.535,228.032 202.772,228.069 198.731 C 228.106 194.690,228.106 188.147,228.069 184.190 C 228.032 180.234,228.002 183.540,228.002 191.538 M216.760 178.665 C 216.762 179.452,216.806 179.745,216.859 179.316 C 216.912 178.888,216.911 178.244,216.857 177.886 C 216.802 177.528,216.759 177.878,216.760 178.665 M189.923 179.195 C 190.346 179.247,191.097 179.248,191.592 179.197 C 192.086 179.145,191.740 179.102,190.822 179.101 C 189.905 179.100,189.500 179.142,189.923 179.195 M195.292 179.437 C 196.046 179.484,197.279 179.484,198.033 179.437 C 198.787 179.390,198.170 179.351,196.663 179.351 C 195.155 179.351,194.538 179.390,195.292 179.437 M176.862 180.632 C 177.436 181.320,177.951 181.883,178.007 181.883 C 178.169 181.883,176.701 180.085,176.237 179.715 C 176.007 179.531,176.287 179.943,176.862 180.632 M212.515 180.930 C 212.214 181.059,212.170 181.135,212.396 181.135 C 212.592 181.135,212.968 181.042,213.230 180.930 C 213.531 180.801,213.575 180.725,213.349 180.725 C 213.153 180.725,212.777 180.817,212.515 180.930 M140.276 181.705 C 140.213 181.869,140.191 186.240,140.226 191.419 L 140.292 200.834 140.348 191.243 L 140.405 181.651 149.166 181.585 L 157.926 181.520 149.158 181.463 C 142.314 181.419,140.365 181.472,140.276 181.705 M159.952 181.883 C 160.280 181.988,160.763 182.074,161.025 182.074 C 161.403 182.074,161.378 182.034,160.906 181.883 C 160.578 181.778,160.095 181.692,159.833 181.692 C 159.456 181.692,159.480 181.732,159.952 181.883 M207.867 181.883 C 207.395 182.034,207.370 182.074,207.747 182.074 C 208.010 182.074,208.492 181.988,208.820 181.883 C 209.292 181.732,209.317 181.692,208.939 181.692 C 208.677 181.692,208.194 181.778,207.867 181.883 M165.127 183.922 C 165.548 184.253,166.174 184.869,166.517 185.290 C 166.861 185.711,167.032 185.831,166.897 185.558 C 166.633 185.023,164.834 183.312,164.540 183.316 C 164.442 183.318,164.707 183.590,165.127 183.922 M199.642 183.552 C 199.035 183.813,199.662 183.813,200.477 183.552 C 200.956 183.398,200.979 183.360,200.596 183.354 C 200.334 183.350,199.905 183.439,199.642 183.552 M216.382 188.512 C 216.587 188.642,216.695 189.830,216.746 192.501 L 216.819 196.305 216.872 192.312 C 216.921 188.647,216.891 188.320,216.508 188.323 C 216.218 188.326,216.179 188.383,216.382 188.512 M168.374 191.538 C 168.375 192.455,168.418 192.802,168.470 192.307 C 168.521 191.812,168.520 191.061,168.468 190.638 C 168.415 190.215,168.373 190.620,168.374 191.538 M181.242 192.253 C 181.243 193.039,181.288 193.332,181.341 192.904 C 181.394 192.476,181.393 191.832,181.338 191.474 C 181.284 191.115,181.241 191.466,181.242 192.253 M205.125 191.180 C 204.518 191.441,205.144 191.441,205.959 191.180 C 206.439 191.027,206.462 190.988,206.079 190.982 C 205.816 190.978,205.387 191.067,205.125 191.180 M198.912 193.862 L 198.212 194.636 198.987 193.936 C 199.413 193.551,199.762 193.203,199.762 193.162 C 199.762 192.977,199.565 193.140,198.912 193.862 M180.995 194.756 C 180.995 195.346,181.041 195.587,181.098 195.292 C 181.155 194.997,181.155 194.514,181.098 194.219 C 181.041 193.924,180.995 194.166,180.995 194.756 M185.753 196.663 C 185.753 197.122,185.802 197.309,185.862 197.080 C 185.922 196.850,185.922 196.475,185.862 196.246 C 185.802 196.016,185.753 196.204,185.753 196.663 M197.443 197.616 C 197.443 198.206,197.489 198.448,197.546 198.153 C 197.603 197.858,197.603 197.375,197.546 197.080 C 197.489 196.785,197.443 197.026,197.443 197.616 M214.903 199.702 C 214.392 200.325,214.219 200.620,214.521 200.358 C 215.054 199.894,216.090 198.570,215.919 198.570 C 215.872 198.570,215.415 199.079,214.903 199.702 M185.753 199.523 C 185.753 199.982,185.802 200.170,185.862 199.940 C 185.922 199.711,185.922 199.336,185.862 199.106 C 185.802 198.877,185.753 199.064,185.753 199.523 M161.383 200.238 C 160.904 200.392,160.880 200.431,161.263 200.436 C 161.526 200.440,161.955 200.351,162.217 200.238 C 162.824 199.977,162.198 199.977,161.383 200.238 M198.331 200.790 C 198.331 200.831,198.680 201.179,199.106 201.564 L 199.881 202.265 199.181 201.490 C 198.528 200.768,198.331 200.606,198.331 200.790 M211.919 201.907 C 211.460 202.158,211.170 202.368,211.275 202.374 C 211.528 202.387,212.872 201.688,212.872 201.543 C 212.872 201.387,212.859 201.393,211.919 201.907 M203.456 203.576 C 203.850 203.676,204.440 203.758,204.768 203.758 C 205.299 203.758,205.286 203.738,204.648 203.576 C 204.255 203.476,203.665 203.394,203.337 203.394 C 202.806 203.394,202.819 203.413,203.456 203.576 M205.903 203.506 C 206.199 203.563,206.628 203.561,206.856 203.501 C 207.084 203.441,206.841 203.395,206.317 203.397 C 205.793 203.400,205.606 203.449,205.903 203.506 M177.344 204.589 C 176.901 205.146,176.727 205.451,176.957 205.266 C 177.391 204.917,178.413 203.576,178.244 203.576 C 178.192 203.576,177.787 204.032,177.344 204.589 M175.209 206.715 C 174.584 207.283,174.435 207.488,174.851 207.208 C 175.509 206.764,176.602 205.708,176.378 205.731 C 176.325 205.737,175.799 206.180,175.209 206.715 M162.217 211.204 L 161.025 211.367 162.098 211.377 C 162.688 211.382,163.492 211.304,163.886 211.204 C 164.825 210.965,163.960 210.965,162.217 211.204 M217.847 211.506 C 217.948 211.607,220.651 211.660,223.854 211.625 L 229.678 211.561 223.671 211.442 C 220.367 211.376,217.746 211.405,217.847 211.506 M135.953 211.621 C 140.387 211.657,147.575 211.657,151.924 211.621 C 156.274 211.584,152.646 211.555,143.862 211.555 C 135.077 211.555,131.519 211.585,135.953 211.621 M207.390 211.919 C 206.899 212.076,206.878 212.113,207.271 212.130 C 207.533 212.141,207.908 212.046,208.105 211.919 C 208.523 211.649,208.233 211.649,207.390 211.919 " stroke="none" fill="#8cb39c" fill-rule="evenodd"></path><path id="path4" d="M94.100 11.610 C 94.395 11.667,94.878 11.667,95.173 11.610 C 95.468 11.554,95.226 11.507,94.636 11.507 C 94.046 11.507,93.805 11.554,94.100 11.610 M109.365 12.396 C 109.423 12.789,109.512 13.111,109.562 13.111 C 109.613 13.111,109.654 12.789,109.654 12.396 C 109.654 12.002,109.566 11.681,109.457 11.681 C 109.349 11.681,109.307 12.002,109.365 12.396 M91.351 12.574 C 90.781 13.132,90.771 13.159,91.288 12.757 C 92.305 11.964,92.354 11.919,92.185 11.919 C 92.095 11.919,91.720 12.214,91.351 12.574 M105.670 14.241 C 106.429 14.288,107.609 14.288,108.292 14.240 C 108.976 14.192,108.355 14.153,106.913 14.154 C 105.471 14.154,104.912 14.193,105.670 14.241 M89.960 14.646 C 89.888 14.835,89.871 15.184,89.922 15.421 C 89.980 15.690,90.062 15.561,90.139 15.077 C 90.269 14.266,90.185 14.062,89.960 14.646 M103.714 16.269 C 103.692 16.746,103.897 16.791,104.410 16.422 C 104.716 16.202,104.709 16.183,104.366 16.293 C 104.145 16.364,103.912 16.293,103.848 16.137 C 103.785 15.980,103.724 16.040,103.714 16.269 M93.445 17.122 C 93.445 17.230,93.766 17.272,94.160 17.214 C 94.553 17.156,94.875 17.068,94.875 17.017 C 94.875 16.966,94.553 16.925,94.160 16.925 C 93.766 16.925,93.445 17.014,93.445 17.122 M97.557 17.560 C 97.131 17.731,97.188 18.277,97.650 18.454 C 97.957 18.572,97.984 18.535,97.775 18.283 C 97.578 18.046,97.581 17.889,97.789 17.682 C 98.085 17.386,98.042 17.364,97.557 17.560 M104.946 18.281 C 105.176 18.341,105.551 18.341,105.781 18.281 C 106.010 18.221,105.822 18.172,105.364 18.172 C 104.905 18.172,104.717 18.221,104.946 18.281 M102.741 19.309 L 101.907 19.484 102.668 19.516 C 103.086 19.533,103.495 19.440,103.576 19.309 C 103.657 19.178,103.690 19.084,103.649 19.102 C 103.609 19.119,103.200 19.212,102.741 19.309 M107.335 20.739 C 107.335 21.329,107.382 21.570,107.439 21.275 C 107.496 20.980,107.496 20.498,107.439 20.203 C 107.382 19.908,107.335 20.149,107.335 20.739 M99.234 21.335 C 99.236 21.990,99.282 22.230,99.337 21.868 C 99.392 21.506,99.390 20.969,99.333 20.676 C 99.277 20.383,99.232 20.679,99.234 21.335 M100.758 21.383 C 100.693 21.488,101.234 21.536,101.960 21.490 C 102.876 21.432,103.349 21.505,103.505 21.728 C 103.687 21.987,103.712 21.980,103.635 21.692 C 103.530 21.304,100.978 21.029,100.758 21.383 M95.937 22.424 C 95.851 22.565,95.549 22.772,95.268 22.886 C 94.918 23.027,94.876 23.097,95.136 23.108 C 95.345 23.116,95.710 22.908,95.948 22.646 C 96.185 22.384,96.315 22.169,96.237 22.169 C 96.159 22.169,96.024 22.284,95.937 22.424 M93.981 25.671 C 94.210 25.731,94.586 25.731,94.815 25.671 C 95.045 25.611,94.857 25.562,94.398 25.562 C 93.939 25.562,93.751 25.611,93.981 25.671 M18.832 27.831 C 18.832 27.993,30.880 27.991,46.365 27.826 C 49.642 27.791,44.788 27.738,35.578 27.707 C 26.368 27.677,18.832 27.732,18.832 27.831 M53.417 27.978 C 53.471 28.026,53.945 28.131,54.470 28.211 C 55.134 28.312,55.279 28.290,54.946 28.140 C 54.489 27.933,53.212 27.797,53.417 27.978 M64.829 32.956 C 65.817 34.008,66.031 34.198,66.031 34.019 C 66.031 33.980,65.521 33.471,64.899 32.886 L 63.766 31.824 64.829 32.956 M31.335 45.888 C 31.335 50.346,31.367 52.136,31.406 49.866 C 31.445 47.596,31.445 43.948,31.406 41.761 C 31.367 39.573,31.335 41.430,31.335 45.888 M53.993 40.286 C 54.505 40.810,54.978 41.240,55.043 41.240 C 55.109 41.240,54.743 40.810,54.231 40.286 C 53.719 39.762,53.247 39.333,53.181 39.333 C 53.115 39.333,53.481 39.762,53.993 40.286 M68.799 39.928 C 68.995 40.805,69.131 40.995,69.126 40.385 C 69.124 40.134,69.014 39.768,68.881 39.571 C 68.704 39.310,68.682 39.406,68.799 39.928 M104.589 45.699 L 105.840 45.794 105.840 51.489 L 105.840 57.184 104.885 57.280 L 103.930 57.377 104.945 57.354 L 105.959 57.330 105.959 51.490 L 105.959 45.650 104.648 45.627 L 103.337 45.604 104.589 45.699 M79.913 70.129 C 79.882 82.937,79.937 93.466,80.036 93.527 C 80.198 93.627,80.196 77.069,80.032 55.185 C 79.998 50.596,79.944 57.321,79.913 70.129 M91.299 50.179 C 91.299 51.861,91.365 53.172,91.446 53.091 C 91.611 52.926,91.572 47.392,91.405 47.225 C 91.347 47.167,91.299 48.496,91.299 50.179 M68.919 47.716 C 68.904 47.935,68.830 48.310,68.754 48.550 C 68.624 48.964,68.631 48.965,68.890 48.562 C 69.039 48.329,69.114 47.953,69.054 47.728 C 68.958 47.359,68.944 47.358,68.919 47.716 M93.921 49.702 C 93.342 50.292,92.922 50.775,92.988 50.775 C 93.053 50.775,93.581 50.292,94.160 49.702 C 94.739 49.112,95.159 48.629,95.093 48.629 C 95.028 48.629,94.500 49.112,93.921 49.702 M54.099 51.430 L 53.278 52.324 54.172 51.503 C 55.004 50.738,55.175 50.536,54.993 50.536 C 54.953 50.536,54.551 50.939,54.099 51.430 M47.378 54.042 C 47.673 54.099,48.156 54.099,48.451 54.042 C 48.746 53.985,48.504 53.939,47.914 53.939 C 47.324 53.939,47.083 53.985,47.378 54.042 M59.237 57.211 C 58.937 57.340,58.893 57.416,59.118 57.416 C 59.315 57.416,59.690 57.324,59.952 57.211 C 60.253 57.082,60.297 57.006,60.072 57.006 C 59.875 57.006,59.499 57.098,59.237 57.211 M60.906 58.164 C 61.168 58.277,61.544 58.369,61.740 58.369 C 61.966 58.369,61.921 58.294,61.621 58.164 C 61.359 58.052,60.983 57.960,60.787 57.960 C 60.561 57.960,60.605 58.035,60.906 58.164 M31.337 63.707 C 31.273 63.872,31.250 68.189,31.284 73.302 L 31.347 82.598 40.405 82.603 L 49.464 82.607 40.465 82.540 L 31.466 82.473 31.466 73.063 L 31.466 63.653 40.226 63.588 L 48.987 63.522 40.219 63.465 C 33.374 63.421,31.426 63.474,31.337 63.707 M71.304 68.182 C 71.665 69.249,71.868 69.456,71.650 68.534 C 71.556 68.141,71.377 67.714,71.252 67.586 C 71.127 67.458,71.150 67.726,71.304 68.182 M91.410 80.930 C 91.410 87.747,91.441 90.502,91.478 87.051 C 91.515 83.600,91.515 78.022,91.478 74.656 C 91.440 71.289,91.410 74.112,91.410 80.930 M72.167 73.421 C 72.285 77.028,72.411 77.512,72.416 74.374 C 72.418 72.998,72.343 71.603,72.249 71.275 C 72.155 70.948,72.118 71.913,72.167 73.421 M59.178 72.586 C 59.181 73.111,59.230 73.297,59.287 73.001 C 59.344 72.704,59.341 72.275,59.282 72.047 C 59.222 71.819,59.175 72.062,59.178 72.586 M59.173 74.374 C 59.173 74.833,59.222 75.021,59.282 74.791 C 59.342 74.562,59.342 74.187,59.282 73.957 C 59.222 73.728,59.173 73.915,59.173 74.374 M50.119 82.405 C 50.349 82.465,50.724 82.465,50.954 82.405 C 51.183 82.345,50.995 82.296,50.536 82.296 C 50.077 82.296,49.890 82.345,50.119 82.405 M68.405 86.591 C 67.962 87.148,67.788 87.453,68.018 87.268 C 68.452 86.919,69.474 85.578,69.305 85.578 C 69.253 85.578,68.847 86.034,68.405 86.591 M66.612 88.498 L 65.912 89.273 66.687 88.573 C 67.113 88.188,67.461 87.839,67.461 87.798 C 67.461 87.614,67.265 87.776,66.612 88.498 M53.218 93.371 C 53.448 93.430,53.823 93.430,54.052 93.371 C 54.282 93.311,54.094 93.262,53.635 93.262 C 53.176 93.262,52.989 93.311,53.218 93.371 M48.570 93.617 C 48.996 93.670,49.693 93.670,50.119 93.617 C 50.545 93.564,50.197 93.521,49.344 93.521 C 48.492 93.521,48.144 93.564,48.570 93.617 M210.667 129.140 C 211.749 129.185,213.519 129.185,214.601 129.140 C 215.682 129.096,214.797 129.060,212.634 129.060 C 210.471 129.060,209.586 129.096,210.667 129.140 M225.766 129.261 C 225.821 129.294,226.241 129.642,226.700 130.036 L 227.533 130.751 226.833 129.976 C 226.448 129.550,226.027 129.201,225.899 129.201 C 225.771 129.201,225.711 129.228,225.766 129.261 M222.362 131.764 C 221.942 132.253,221.627 132.777,221.753 132.777 C 221.801 132.777,222.079 132.455,222.370 132.062 C 222.945 131.285,222.939 131.092,222.362 131.764 M218.726 133.625 C 218.636 134.103,218.610 134.542,218.669 134.600 C 218.727 134.659,218.848 134.315,218.938 133.837 C 219.028 133.358,219.053 132.919,218.995 132.861 C 218.937 132.803,218.816 133.146,218.726 133.625 M211.309 133.625 C 210.854 133.989,210.854 133.992,211.323 133.776 C 211.585 133.655,211.961 133.497,212.157 133.424 C 212.466 133.310,212.464 133.289,212.143 133.273 C 211.939 133.262,211.563 133.421,211.309 133.625 M213.966 133.479 C 214.371 133.575,214.853 133.733,215.039 133.829 C 215.224 133.926,215.167 133.836,214.913 133.629 C 214.658 133.423,214.176 133.265,213.840 133.278 C 213.279 133.301,213.289 133.317,213.966 133.479 M207.962 135.695 C 207.984 136.654,208.026 136.712,208.701 136.733 C 209.348 136.753,209.355 136.746,208.773 136.659 C 208.221 136.576,208.117 136.431,208.035 135.622 L 207.939 134.681 207.962 135.695 M222.049 136.831 C 221.439 137.504,221.699 137.567,222.340 136.901 C 222.630 136.600,222.781 136.353,222.674 136.353 C 222.568 136.353,222.287 136.568,222.049 136.831 M217.228 138.021 C 217.228 138.611,217.275 138.853,217.332 138.558 C 217.388 138.263,217.388 137.780,217.332 137.485 C 217.275 137.190,217.228 137.431,217.228 138.021 M227.934 138.181 C 227.910 138.858,227.829 139.609,227.753 139.849 C 227.625 140.258,227.633 140.259,227.885 139.868 C 228.033 139.638,228.114 138.887,228.066 138.199 L 227.979 136.949 227.934 138.181 M209.415 138.665 C 209.808 138.728,210.219 138.904,210.327 139.056 C 210.461 139.243,210.494 139.216,210.429 138.975 C 210.370 138.755,210.019 138.604,209.517 138.584 C 208.769 138.553,208.761 138.560,209.415 138.665 M207.635 140.342 C 207.631 140.504,207.923 140.938,208.284 141.307 C 208.644 141.676,208.766 141.758,208.555 141.489 C 208.343 141.221,208.051 140.787,207.906 140.524 C 207.761 140.262,207.639 140.180,207.635 140.342 M219.547 140.957 C 219.547 140.998,219.896 141.346,220.322 141.731 L 221.097 142.431 220.396 141.657 C 219.744 140.935,219.547 140.772,219.547 140.957 M226.564 141.657 L 225.864 142.431 226.639 141.731 C 227.065 141.346,227.414 140.998,227.414 140.957 C 227.414 140.772,227.217 140.935,226.564 141.657 M211.740 142.953 C 211.970 143.013,212.345 143.013,212.574 142.953 C 212.804 142.893,212.616 142.844,212.157 142.844 C 211.698 142.844,211.511 142.893,211.740 142.953 M222.944 142.953 C 223.173 143.013,223.549 143.013,223.778 142.953 C 224.008 142.893,223.820 142.844,223.361 142.844 C 222.902 142.844,222.715 142.893,222.944 142.953 M127.887 178.784 C 127.887 196.943,127.915 204.371,127.950 195.292 C 127.985 186.213,127.985 171.356,127.950 162.277 C 127.915 153.197,127.887 160.626,127.887 178.784 M160.612 146.061 C 161.041 146.114,161.684 146.113,162.042 146.058 C 162.401 146.004,162.050 145.960,161.263 145.962 C 160.477 145.963,160.184 146.008,160.612 146.061 M144.264 155.840 C 146.451 155.879,150.099 155.879,152.369 155.840 C 154.639 155.801,152.849 155.769,148.391 155.769 C 143.933 155.768,142.076 155.801,144.264 155.840 M156.913 156.064 C 157.142 156.124,157.518 156.124,157.747 156.064 C 157.977 156.004,157.789 155.955,157.330 155.955 C 156.871 155.955,156.684 156.004,156.913 156.064 M162.574 157.882 C 162.574 157.923,162.923 158.271,163.349 158.656 L 164.124 159.356 163.424 158.582 C 162.771 157.859,162.574 157.697,162.574 157.882 M178.384 162.336 C 178.384 163.188,178.427 163.537,178.480 163.111 C 178.533 162.685,178.533 161.987,178.480 161.561 C 178.427 161.135,178.384 161.484,178.384 162.336 M165.268 164.005 C 165.268 164.726,165.313 165.021,165.367 164.660 C 165.422 164.300,165.422 163.710,165.367 163.349 C 165.313 162.989,165.268 163.284,165.268 164.005 M205.662 163.935 C 205.956 163.991,206.439 163.991,206.734 163.935 C 207.029 163.878,206.788 163.831,206.198 163.831 C 205.608 163.831,205.367 163.878,205.662 163.935 M209.952 163.935 C 210.247 163.991,210.730 163.991,211.025 163.935 C 211.320 163.878,211.079 163.831,210.489 163.831 C 209.899 163.831,209.657 163.878,209.952 163.935 M162.813 169.770 C 162.223 170.308,161.955 170.634,162.217 170.496 C 162.665 170.259,164.215 168.761,163.990 168.782 C 163.932 168.788,163.403 169.232,162.813 169.770 M158.164 171.871 C 157.505 172.039,157.496 172.055,158.045 172.078 C 158.373 172.091,158.802 171.998,158.999 171.871 C 159.405 171.609,159.195 171.609,158.164 171.871 M206.505 172.763 C 207.263 172.810,208.443 172.810,209.127 172.762 C 209.810 172.714,209.190 172.675,207.747 172.676 C 206.305 172.676,205.746 172.715,206.505 172.763 M169.130 175.098 C 168.531 175.386,168.512 175.419,169.011 175.299 C 169.338 175.220,169.709 175.060,169.833 174.943 C 170.142 174.655,169.972 174.692,169.130 175.098 M227.815 175.924 C 227.893 176.514,227.995 177.041,228.043 177.096 C 228.222 177.303,228.086 175.783,227.884 175.328 C 227.743 175.009,227.720 175.207,227.815 175.924 M187.938 177.950 C 187.961 179.102,187.986 179.143,188.677 179.176 C 189.331 179.208,189.337 179.202,188.749 179.102 C 188.175 179.005,188.096 178.873,188.010 177.876 L 187.913 176.758 187.938 177.950 M199.323 178.474 L 199.285 179.474 198.033 179.562 L 196.782 179.650 198.041 179.694 C 199.446 179.743,199.618 179.570,199.459 178.271 C 199.370 177.542,199.358 177.560,199.323 178.474 M190.763 179.436 C 191.386 179.485,192.405 179.485,193.027 179.436 C 193.650 179.387,193.141 179.347,191.895 179.347 C 190.650 179.347,190.140 179.387,190.763 179.436 M214.064 180.464 C 213.803 180.641,213.900 180.663,214.422 180.546 C 215.298 180.350,215.489 180.213,214.879 180.218 C 214.628 180.220,214.261 180.331,214.064 180.464 M210.727 181.168 C 210.255 181.319,210.230 181.359,210.608 181.359 C 210.870 181.359,211.353 181.273,211.681 181.168 C 212.152 181.017,212.177 180.977,211.800 180.977 C 211.538 180.977,211.055 181.063,210.727 181.168 M156.913 181.818 C 157.405 181.870,158.209 181.870,158.701 181.818 C 159.192 181.767,158.790 181.725,157.807 181.725 C 156.824 181.725,156.421 181.767,156.913 181.818 M198.093 183.801 C 197.832 183.978,197.928 184.000,198.451 183.883 C 199.327 183.687,199.517 183.551,198.907 183.555 C 198.656 183.558,198.290 183.668,198.093 183.801 M165.673 184.625 C 166.118 185.083,166.536 185.459,166.601 185.459 C 166.667 185.459,166.357 185.083,165.912 184.625 C 165.467 184.166,165.050 183.790,164.984 183.790 C 164.918 183.790,165.229 184.166,165.673 184.625 M181.223 190.226 C 181.223 190.685,181.272 190.873,181.332 190.644 C 181.392 190.414,181.392 190.039,181.332 189.809 C 181.272 189.580,181.223 189.768,181.223 190.226 M181.228 194.398 C 181.231 194.923,181.280 195.109,181.337 194.812 C 181.394 194.516,181.392 194.087,181.332 193.859 C 181.272 193.631,181.226 193.874,181.228 194.398 M197.765 195.838 C 197.683 196.051,197.627 196.458,197.641 196.742 C 197.656 197.069,197.737 196.952,197.861 196.426 C 198.069 195.540,198.012 195.193,197.765 195.838 M197.620 198.709 C 197.622 198.960,197.732 199.327,197.865 199.523 C 198.042 199.784,198.064 199.688,197.947 199.166 C 197.751 198.289,197.615 198.099,197.620 198.709 M214.290 200.179 L 213.468 201.073 214.362 200.251 C 215.194 199.487,215.366 199.285,215.184 199.285 C 215.144 199.285,214.742 199.687,214.290 200.179 M204.350 203.502 C 204.580 203.562,204.955 203.562,205.185 203.502 C 205.414 203.442,205.226 203.393,204.768 203.393 C 204.309 203.393,204.121 203.442,204.350 203.502 M228.194 205.244 C 228.194 205.834,228.240 206.076,228.297 205.781 C 228.354 205.486,228.354 205.003,228.297 204.708 C 228.240 204.413,228.194 204.654,228.194 205.244 M176.505 205.781 L 175.805 206.555 176.579 205.855 C 177.005 205.470,177.354 205.122,177.354 205.081 C 177.354 204.896,177.157 205.059,176.505 205.781 M189.511 208.224 C 190.223 208.945,190.860 209.535,190.925 209.535 C 190.991 209.535,190.462 208.945,189.750 208.224 C 189.038 207.503,188.401 206.913,188.336 206.913 C 188.270 206.913,188.799 207.503,189.511 208.224 M216.319 207.883 C 216.201 208.073,216.234 208.118,216.411 208.008 C 216.587 207.900,216.697 208.038,216.714 208.389 C 216.736 208.831,216.764 208.853,216.856 208.497 C 216.998 207.943,216.579 207.462,216.319 207.883 M228.401 207.867 C 228.401 208.063,228.493 208.439,228.605 208.701 C 228.735 209.001,228.810 209.045,228.810 208.820 C 228.810 208.623,228.718 208.248,228.605 207.986 C 228.476 207.685,228.401 207.641,228.401 207.867 M210.489 211.085 C 210.161 211.272,210.000 211.425,210.131 211.425 C 210.262 211.425,210.638 211.272,210.965 211.085 C 211.293 210.897,211.454 210.744,211.323 210.744 C 211.192 210.744,210.816 210.897,210.489 211.085 M229.480 211.165 C 229.612 211.670,229.594 211.672,223.805 211.740 L 217.998 211.809 223.786 211.864 C 229.769 211.921,230.492 211.803,229.604 210.915 C 229.421 210.732,229.385 210.803,229.480 211.165 M160.012 211.607 C 160.241 211.666,160.617 211.666,160.846 211.607 C 161.076 211.547,160.888 211.497,160.429 211.497 C 159.970 211.497,159.782 211.547,160.012 211.607 M135.476 211.859 C 139.517 211.896,146.061 211.896,150.017 211.859 C 153.974 211.823,150.667 211.793,142.670 211.793 C 134.672 211.793,131.435 211.823,135.476 211.859 M200.308 212.811 C 201.198 212.857,202.593 212.857,203.407 212.810 C 204.221 212.764,203.492 212.726,201.788 212.727 C 200.083 212.727,199.417 212.765,200.308 212.811 " stroke="none" fill="#67977f" fill-rule="evenodd"></path></g></svg>